{"glyphs":{":":{"x_min":0,"x_max":307,"ha":307,"o":"m 173 168 q 215 168 244 139 q 272 109 272 68 q 272 27 243 -2 q 213 -31 173 -31 q 131 -31 102 -2 q 73 28 73 69 q 73 110 102 139 q 131 167 173 168 z m 173 578 q 215 578 244 549 q 272 520 272 478 q 272 437 243 408 q 213 379 173 379 q 131 379 102 408 q 73 438 73 479 q 73 520 102 549 q 131 578 173 578 z"},"$":{"x_min":0,"x_max":713,"ha":713,"o":"m 446 427 q 573 416 641 369 q 678 343 700 300 q 721 256 721 208 q 721 134 679 79 q 636 24 557 -4 q 494 -27 446 -29 l 446 -42 q 446 -50 448 -53 q 451 -56 477 -63 l 477 -113 l 302 -113 l 302 -63 q 329 -56 331 -53 q 333 -50 333 -42 l 333 -28 q 229 -21 104 42 q 98 45 96 45 q 97 45 79 31 l 37 52 l 125 250 l 168 231 l 168 211 q 168 195 190 180 q 220 159 267 143 q 313 127 333 126 l 333 253 q 279 258 241 267 q 204 275 170 292 q 121 317 93 365 q 67 410 67 466 q 67 569 145 632 q 223 694 333 697 l 333 702 q 333 709 331 712 q 329 715 302 723 l 302 772 l 478 772 l 478 722 q 451 715 448 712 q 446 709 446 702 l 446 694 q 476 692 525 677 q 575 663 652 630 q 661 626 665 626 q 668 626 686 641 l 729 619 l 631 426 l 588 451 q 590 466 590 469 q 590 482 534 510 q 479 538 446 541 z m 333 438 l 333 543 q 317 542 292 534 q 268 525 254 511 q 241 496 241 480 q 241 470 249 461 q 256 453 272 449 q 299 441 333 438 z m 446 241 l 446 126 q 469 128 497 142 q 541 164 541 198 q 541 208 535 216 q 529 224 519 228 q 493 237 446 241 z"},"?":{"x_min":0,"x_max":488,"ha":488,"o":"m 120 463 l 20 606 l 62 604 q 160 671 198 684 q 237 698 281 698 q 355 698 405 663 q 475 614 475 530 q 475 487 453 448 q 432 409 382 360 q 351 330 343 315 q 334 299 334 250 l 363 210 l 173 210 l 201 250 q 201 314 215 350 q 229 385 260 424 q 286 457 294 473 q 302 489 302 504 q 302 528 287 542 q 272 555 245 555 q 187 555 120 463 z m 271 168 q 313 168 342 139 q 371 109 371 68 q 371 27 341 -2 q 312 -31 271 -31 q 230 -31 201 -2 q 171 28 171 69 q 171 110 200 139 q 229 167 271 168 z"},"<":{"x_min":0,"x_max":500,"ha":500,"o":"m 505 650 l 505 465 l 246 333 l 505 202 l 505 17 l 33 263 l 33 405 z"},"'":{"x_min":0,"x_max":278,"ha":278,"o":"m 236 358 l 82 358 l 108 392 l 76 649 l 47 686 l 271 686 l 241 649 l 209 391 z"},"=":{"x_min":0,"x_max":767,"ha":767,"o":"m 114 348 l 114 545 l 156 514 l 649 514 l 691 545 l 691 348 l 649 379 l 156 379 z m 114 121 l 114 318 l 156 288 l 649 288 l 691 318 l 691 121 l 649 153 l 156 153 z"},"a":{"x_min":0,"x_max":813,"ha":813,"o":"m 290 688 l 528 688 l 873 -20 l 579 -20 l 620 34 l 588 106 l 250 106 l 214 34 l 255 -20 l 0 -20 l 313 634 z m 299 235 l 535 235 l 418 488 z"},"L":{"x_min":0,"x_max":729,"ha":729,"o":"m 96 687 l 388 687 l 347 634 l 347 126 l 679 126 l 740 169 l 740 -20 l 96 -20 l 140 33 l 140 634 z"},"3":{"x_min":0,"x_max":713,"ha":713,"o":"m 633 354 q 718 322 718 202 q 718 83 613 21 q 525 -31 394 -31 q 178 -22 40 79 l 127 216 q 249 122 380 122 l 392 122 q 450 122 490 140 q 534 160 534 202 q 534 237 501 257 q 469 277 319 277 l 274 243 l 274 446 l 315 411 q 460 411 494 433 q 519 449 519 479 q 519 509 488 527 q 458 545 393 545 q 258 539 152 446 l 53 573 q 206 691 405 698 q 516 698 592 654 q 638 627 665 585 q 691 541 691 486 q 691 388 633 354 z"},";":{"x_min":0,"x_max":307,"ha":307,"o":"m 87 -117 q 142 -82 157 -60 q 172 -38 174 -32 q 174 -32 174 -32 q 174 -31 164 -31 q 123 -31 98 -3 q 73 26 73 69 q 73 113 98 141 q 124 168 165 168 q 220 168 249 123 q 272 85 272 34 q 272 -83 135 -180 z m 173 578 q 215 578 244 549 q 272 520 272 478 q 272 437 243 408 q 213 379 173 379 q 131 379 102 408 q 73 438 73 479 q 73 520 102 549 q 131 578 173 578 z"},"J":{"x_min":0,"x_max":544,"ha":544,"o":"m 56 152 q 96 122 161 122 q 306 122 306 247 l 306 634 l 265 687 l 557 687 l 514 634 l 514 247 q 514 -31 161 -31 q 106 -31 56 -19 z"},"V":{"x_min":0,"x_max":809,"ha":809,"o":"m 54 687 l 345 687 l 304 634 l 473 249 l 651 636 l 607 687 l 855 687 l 855 685 l 528 -14 l 384 -14 z"},"\"":{"x_min":0,"x_max":555,"ha":555,"o":"m 236 358 l 82 358 l 108 392 l 76 649 l 47 686 l 271 686 l 241 649 l 209 391 z m 513 358 l 359 358 l 386 391 l 354 649 l 324 686 l 548 686 l 519 649 l 486 391 z"},"7":{"x_min":0,"x_max":713,"ha":713,"o":"m 710 685 l 710 565 l 378 20 l 420 -20 l 143 -20 l 493 537 l 88 537 l 42 506 l 42 685 z"},"S":{"x_min":0,"x_max":708,"ha":708,"o":"m 673 698 l 673 471 q 502 547 375 547 q 296 547 294 503 q 294 459 500 400 q 708 325 708 187 q 708 -31 415 -31 q 300 -31 140 26 l 86 -33 l 86 220 q 252 118 408 118 q 491 118 491 166 q 491 210 330 258 q 195 299 131 362 q 81 420 81 500 q 81 603 195 660 q 276 696 391 696 q 479 696 618 648 z"},"}":{"x_min":0,"x_max":333,"ha":333,"o":"m 11 71 l 61 40 l 125 40 q 159 42 159 89 l 159 263 q 159 291 169 310 q 180 328 188 333 q 180 339 169 357 q 159 376 159 403 l 159 578 q 159 625 125 627 l 61 627 l 11 596 l 11 740 l 199 740 q 239 740 273 711 q 307 683 307 645 l 307 462 q 308 411 310 405 q 312 398 317 398 l 372 398 l 405 429 l 405 237 l 372 269 l 317 269 q 312 269 310 262 q 308 255 307 204 l 307 21 q 307 -19 267 -48 q 235 -73 199 -73 l 11 -73 z"},"Z":{"x_min":0,"x_max":874,"ha":874,"o":"m 126 -19 l 126 112 l 534 524 l 177 524 l 126 482 l 126 687 l 833 687 l 833 553 l 417 144 l 779 144 l 833 188 l 833 -19 z"},"x":{"x_min":0,"x_max":833,"ha":833,"o":"m 336 339 l 63 687 l 360 687 l 329 645 l 473 438 l 622 646 l 588 687 l 865 687 l 865 686 l 591 334 l 863 -15 l 572 -15 l 603 27 l 459 234 l 305 26 l 339 -15 l 62 -15 l 62 -13 z"},")":{"x_min":0,"x_max":333,"ha":333,"o":"m 89 771 q 167 715 215 646 q 315 502 315 333 q 315 206 257 90 q 200 -25 89 -104 l 8 -38 q 75 40 100 93 q 145 191 145 333 q 145 449 117 530 q 88 611 8 705 z"},"&":{"x_min":0,"x_max":773,"ha":773,"o":"m 786 485 l 786 254 l 757 273 q 720 270 681 239 q 655 210 648 188 q 677 146 759 146 l 786 169 l 786 -16 q 598 -16 540 57 q 449 -31 305 -31 q 192 -31 117 23 q 29 86 29 190 q 29 328 162 393 q 112 437 112 514 q 112 604 197 657 q 264 698 350 698 q 445 698 518 649 q 592 600 592 511 q 592 462 571 428 q 549 394 520 373 q 550 353 565 322 q 595 373 642 415 q 690 458 786 485 z m 353 559 q 322 559 299 544 q 272 527 272 495 q 272 468 294 449 q 316 431 353 431 q 385 431 408 445 q 435 463 435 494 q 435 522 413 540 q 391 559 353 559 z m 318 309 q 271 309 236 281 q 204 255 204 217 q 204 176 236 149 q 269 122 322 122 q 378 122 417 149 q 453 174 453 207 q 453 222 442 242 q 431 262 413 276 q 374 308 318 309 z"},"_":{"x_min":0,"x_max":500,"ha":500,"o":"m 0 -39 l 539 -39 l 539 -163 l 0 -163 z"},"v":{"x_min":0,"x_max":809,"ha":809,"o":"m 54 687 l 345 687 l 304 634 l 473 249 l 651 636 l 607 687 l 855 687 l 855 685 l 528 -14 l 384 -14 z"},"O":{"x_min":0,"x_max":840,"ha":840,"o":"m 456 698 q 855 698 855 331 q 855 -31 463 -31 q 54 -31 54 339 q 54 698 456 698 z m 271 340 q 271 118 461 118 q 638 118 638 331 q 638 549 453 549 q 271 549 271 340 z"},"(":{"x_min":0,"x_max":333,"ha":333,"o":"m 292 771 l 373 705 q 306 627 281 573 q 235 476 235 333 q 235 217 264 136 q 292 56 373 -38 l 292 -104 q 214 -49 165 21 q 65 165 65 333 q 65 460 123 576 q 181 692 292 771 z"},"C":{"x_min":0,"x_max":778,"ha":778,"o":"m 792 30 q 672 -32 518 -32 q 94 -32 94 338 q 94 694 513 694 q 619 694 742 653 l 792 698 l 792 466 q 656 543 514 543 q 313 543 313 329 q 313 119 513 119 q 703 119 792 167 z"},"W":{"x_min":0,"x_max":1167,"ha":1167,"o":"m 1205 687 l 921 -14 l 767 -14 l 637 347 l 499 -14 l 340 -14 l 68 687 l 350 687 l 309 634 l 434 249 l 602 687 l 724 687 l 871 249 l 1018 634 l 977 687 z"},"A":{"x_min":0,"x_max":813,"ha":813,"o":"m 290 688 l 528 688 l 873 -20 l 579 -20 l 620 34 l 588 106 l 250 106 l 214 34 l 255 -20 l 0 -20 l 313 634 z m 299 235 l 535 235 l 418 488 z"},"f":{"x_min":0,"x_max":709,"ha":709,"o":"m 83 687 l 749 687 l 749 498 l 693 542 l 333 542 l 333 403 l 562 403 l 615 447 l 615 221 l 562 265 l 333 265 l 333 35 l 382 -19 l 83 -19 l 127 34 l 127 634 z"},"Q":{"x_min":0,"x_max":840,"ha":840,"o":"m 620 217 q 638 263 638 331 q 638 549 453 549 q 271 549 271 340 q 271 123 453 118 l 416 179 l 579 280 z m 542 -27 q 505 -31 463 -31 q 54 -31 54 339 q 54 698 456 698 q 855 698 855 331 q 855 130 735 41 l 768 -9 l 587 -101 z"},"w":{"x_min":0,"x_max":1167,"ha":1167,"o":"m 1205 687 l 921 -14 l 767 -14 l 637 347 l 499 -14 l 340 -14 l 68 687 l 350 687 l 309 634 l 434 249 l 602 687 l 724 687 l 871 249 l 1018 634 l 977 687 z"},"-":{"x_min":0,"x_max":222,"ha":222,"o":"m 286 441 l 286 233 l 239 264 l 70 264 l 24 233 l 24 441 l 70 409 l 239 409 z"},"E":{"x_min":0,"x_max":725,"ha":725,"o":"m 83 687 l 749 687 l 749 498 l 693 542 l 333 542 l 333 403 l 562 403 l 615 447 l 615 221 l 562 265 l 333 265 l 333 126 l 693 126 l 749 170 l 749 -20 l 83 -20 l 127 34 l 127 634 z"},"s":{"x_min":0,"x_max":708,"ha":708,"o":"m 673 698 l 673 471 q 502 547 375 547 q 296 547 294 503 q 294 459 500 400 q 708 325 708 187 q 708 -31 415 -31 q 300 -31 140 26 l 86 -33 l 86 220 q 252 118 408 118 q 491 118 491 166 q 491 210 330 258 q 195 299 131 362 q 81 420 81 500 q 81 603 195 660 q 276 696 391 696 q 479 696 618 648 z"},">":{"x_min":0,"x_max":500,"ha":500,"o":"m 34 650 l 506 405 l 506 263 l 34 17 l 34 202 l 293 333 l 34 465 z"},"l":{"x_min":0,"x_max":729,"ha":729,"o":"m 96 687 l 388 687 l 347 634 l 347 126 l 679 126 l 740 169 l 740 -20 l 96 -20 l 140 33 l 140 634 z"},"8":{"x_min":0,"x_max":713,"ha":713,"o":"m 610 360 q 716 333 716 200 q 716 112 646 47 q 564 -31 376 -31 q 250 -31 167 6 q 111 31 74 83 q 37 138 37 199 q 37 333 142 360 q 65 391 65 499 q 65 575 127 628 q 207 698 376 698 q 494 698 573 662 q 623 640 654 598 q 687 556 687 499 q 687 391 610 360 z m 375 554 q 311 554 278 536 q 245 519 245 493 q 245 468 278 450 q 312 433 376 433 q 440 433 474 450 q 507 468 507 492 q 507 519 475 537 q 442 554 375 554 z m 375 282 q 297 282 253 253 q 225 235 225 202 q 225 167 264 144 q 302 122 376 122 q 456 122 500 150 q 527 169 527 201 q 527 237 490 260 q 452 282 375 282 z"},"\\":{"x_min":0,"x_max":759,"ha":759,"o":"m 33 686 l 301 686 l 271 646 l 765 -20 l 498 -20 l 527 17 z"},"e":{"x_min":0,"x_max":725,"ha":725,"o":"m 83 687 l 749 687 l 749 498 l 693 542 l 333 542 l 333 403 l 562 403 l 615 447 l 615 221 l 562 265 l 333 265 l 333 126 l 693 126 l 749 170 l 749 -20 l 83 -20 l 127 34 l 127 634 z"},"b":{"x_min":0,"x_max":771,"ha":771,"o":"m 342 271 l 342 131 l 488 131 q 595 131 595 197 q 595 271 490 271 z m 485 391 q 595 391 595 454 q 595 531 483 531 l 342 531 l 342 391 z m 537 687 q 806 687 806 490 q 806 358 691 333 q 806 309 806 165 q 806 -20 537 -20 l 94 -20 l 136 33 l 136 624 l 94 687 z"},"%":{"x_min":0,"x_max":883,"ha":883,"o":"m 223 692 q 302 692 354 644 q 413 590 413 498 q 413 410 354 356 q 302 308 223 308 q 145 308 92 356 q 33 411 33 500 q 33 591 92 644 q 145 691 223 692 z m 223 583 q 194 583 176 561 q 157 538 157 500 q 157 461 176 439 q 194 417 223 417 q 251 417 271 439 q 290 461 290 499 q 290 539 271 561 q 253 583 223 583 z m 699 359 q 778 359 830 311 q 889 257 889 165 q 889 77 830 23 q 778 -25 699 -25 q 621 -25 568 23 q 509 77 509 167 q 509 258 568 311 q 621 358 699 359 z m 699 250 q 670 250 652 228 q 633 205 633 167 q 633 128 652 106 q 670 83 699 83 q 728 83 747 106 q 766 128 766 166 q 766 206 747 228 q 729 250 699 250 z m 303 12 l 332 -20 l 119 -20 l 613 651 l 583 686 l 796 686 z"},"m":{"x_min":0,"x_max":966,"ha":966,"o":"m 477 -21 l 267 375 l 267 35 l 313 -20 l 61 -20 q 61 -19 111 39 l 111 636 l 73 687 l 318 687 l 545 259 l 763 687 l 1019 687 l 972 632 l 972 22 l 1008 -21 l 721 -21 l 766 28 l 766 355 l 575 -21 z"},"#":{"x_min":0,"x_max":767,"ha":767,"o":"m 650 534 l 708 534 q 716 534 721 538 q 726 542 737 566 l 789 566 l 750 361 l 699 361 q 697 389 696 390 q 694 392 688 392 l 623 392 l 599 271 l 657 271 q 665 271 670 275 q 674 278 686 302 l 737 302 l 699 97 l 648 97 q 646 126 644 127 q 643 129 637 129 l 571 129 l 556 46 l 556 42 q 556 38 556 37 q 557 37 583 28 l 573 -21 l 367 -21 l 378 30 q 403 38 408 42 q 412 45 414 54 l 428 129 l 308 129 l 292 46 l 292 42 q 292 38 292 37 q 293 37 319 28 l 311 -21 l 105 -21 l 114 30 q 141 38 145 42 q 149 45 150 54 l 165 129 l 107 129 q 99 129 94 125 q 90 122 78 97 l 25 97 l 65 302 l 116 302 q 118 273 119 272 q 121 271 127 271 l 193 271 l 216 392 l 159 392 q 150 392 145 388 q 141 385 129 361 l 77 361 l 117 566 l 167 566 q 169 537 171 536 q 172 534 179 534 l 244 534 l 260 618 q 260 619 260 621 q 260 625 260 626 q 259 626 232 634 l 241 684 l 448 684 l 437 632 q 412 626 407 622 q 403 618 401 609 l 387 534 l 507 534 l 523 616 q 523 617 523 621 q 523 625 523 626 q 522 626 496 634 l 504 684 l 710 684 l 701 632 q 675 626 670 622 q 666 618 665 609 z m 456 271 l 479 392 l 359 392 l 335 271 z"},",":{"x_min":0,"x_max":307,"ha":307,"o":"m 87 -117 q 142 -82 157 -60 q 172 -38 174 -32 q 174 -32 174 -32 q 174 -31 164 -31 q 123 -31 98 -3 q 73 26 73 69 q 73 113 98 141 q 124 168 165 168 q 220 168 249 123 q 272 85 272 34 q 272 -83 135 -180 z"},"n":{"x_min":0,"x_max":874,"ha":874,"o":"m 84 687 l 305 687 l 667 279 l 667 636 l 626 687 l 874 687 l 830 634 l 830 -20 l 672 -20 l 289 396 l 289 34 l 332 -20 l 84 -20 l 126 33 l 126 630 z"},"h":{"x_min":0,"x_max":862,"ha":862,"o":"m 316 258 l 316 31 l 358 -20 l 62 -20 l 105 34 l 105 634 l 62 687 l 358 687 l 316 636 l 316 421 l 652 421 l 652 634 l 608 687 l 905 687 l 863 636 l 863 31 l 905 -20 l 608 -20 l 652 34 l 652 258 z"},"z":{"x_min":0,"x_max":874,"ha":874,"o":"m 126 -19 l 126 112 l 534 524 l 177 524 l 126 482 l 126 687 l 833 687 l 833 553 l 417 144 l 779 144 l 833 188 l 833 -19 z"},"B":{"x_min":0,"x_max":771,"ha":771,"o":"m 342 271 l 342 131 l 488 131 q 595 131 595 197 q 595 271 490 271 z m 485 391 q 595 391 595 454 q 595 531 483 531 l 342 531 l 342 391 z m 537 687 q 806 687 806 490 q 806 358 691 333 q 806 309 806 165 q 806 -20 537 -20 l 94 -20 l 136 33 l 136 624 l 94 687 z"},"K":{"x_min":0,"x_max":846,"ha":846,"o":"m 353 247 l 287 189 l 287 31 l 329 -20 l 32 -20 l 76 34 l 76 634 l 32 687 l 329 687 l 287 636 l 287 402 l 545 634 l 501 687 l 856 687 l 492 369 l 849 -20 l 496 -20 l 540 33 z"},"R":{"x_min":0,"x_max":770,"ha":770,"o":"m 71 687 l 513 687 q 783 687 783 473 q 783 298 623 259 l 814 -20 l 501 -20 l 544 33 l 411 232 l 319 232 l 319 33 l 362 -20 l 71 -20 l 112 28 l 112 639 z m 319 541 l 319 366 l 462 366 q 571 366 571 456 q 571 541 459 541 z"},"T":{"x_min":0,"x_max":751,"ha":751,"o":"m 770 687 l 770 477 l 719 519 l 521 519 l 521 31 l 563 -20 l 267 -20 l 311 34 l 311 519 l 114 519 l 63 477 l 63 687 z"},"P":{"x_min":0,"x_max":770,"ha":770,"o":"m 71 687 l 513 687 q 783 687 783 437 q 783 193 509 193 l 319 193 l 319 33 l 362 -20 l 71 -20 l 112 33 l 112 629 z m 319 541 l 319 327 l 462 327 q 571 327 571 434 q 571 541 459 541 z"},"|":{"x_min":0,"x_max":500,"ha":500,"o":"m 179 686 l 360 686 l 360 -186 l 179 -186 z"},"t":{"x_min":0,"x_max":751,"ha":751,"o":"m 770 687 l 770 477 l 719 519 l 521 519 l 521 31 l 563 -20 l 267 -20 l 311 34 l 311 519 l 114 519 l 63 477 l 63 687 z"},"M":{"x_min":0,"x_max":966,"ha":966,"o":"m 477 -21 l 267 375 l 267 35 l 313 -20 l 61 -20 q 61 -19 111 39 l 111 636 l 73 687 l 318 687 l 545 259 l 763 687 l 1019 687 l 972 632 l 972 22 l 1008 -21 l 721 -21 l 766 28 l 766 355 l 575 -21 z"},"g":{"x_min":0,"x_max":839,"ha":839,"o":"m 792 698 l 792 465 q 646 543 514 543 q 313 543 313 329 q 313 119 509 119 q 576 119 619 133 l 619 274 l 577 329 l 824 329 l 824 41 q 707 -32 472 -32 q 94 -32 94 338 q 94 694 522 694 q 638 694 742 653 z"},"j":{"x_min":0,"x_max":544,"ha":544,"o":"m 56 152 q 96 122 161 122 q 306 122 306 247 l 306 634 l 265 687 l 557 687 l 514 634 l 514 247 q 514 -31 161 -31 q 106 -31 56 -19 z"},"i":{"x_min":0,"x_max":368,"ha":368,"o":"m 81 687 l 377 687 l 336 636 l 336 31 l 377 -20 l 81 -20 l 125 34 l 125 634 z"},"y":{"x_min":0,"x_max":809,"ha":809,"o":"m 353 177 l 54 687 l 345 687 l 304 648 l 473 321 l 651 650 l 614 687 l 855 687 l 855 685 l 564 186 l 564 31 l 605 -20 l 309 -20 l 353 34 z"},"@":{"x_min":0,"x_max":821,"ha":821,"o":"m 431 404 q 389 404 358 381 q 325 355 323 313 l 323 311 q 323 290 338 277 q 354 262 383 262 q 440 262 476 288 q 509 312 509 342 q 509 372 490 387 q 471 403 431 404 z m 663 479 l 605 243 q 604 241 604 238 q 604 236 615 236 q 635 236 660 256 q 675 267 686 299 q 696 330 696 370 q 696 432 663 479 z m 637 125 l 676 -16 l 636 8 q 524 -30 430 -30 q 279 -30 173 62 q 53 165 53 326 q 53 439 111 527 q 173 622 288 666 q 367 696 451 696 q 605 696 710 604 q 808 518 808 387 q 808 267 731 197 q 678 150 624 150 q 582 150 554 165 q 527 181 517 199 q 502 188 457 175 q 413 161 366 161 q 299 161 256 195 q 208 234 208 299 q 208 370 259 427 q 292 463 342 484 q 391 505 445 505 q 521 505 555 473 l 561 492 l 653 492 q 646 501 637 509 q 597 547 543 567 q 495 585 447 585 q 372 585 301 545 q 228 504 193 443 q 165 395 165 335 q 165 268 200 207 q 271 82 442 82 q 476 82 520 88 q 562 95 637 125 z"},".":{"x_min":0,"x_max":307,"ha":307,"o":"m 173 168 q 215 168 244 139 q 272 109 272 68 q 272 27 243 -2 q 213 -31 173 -31 q 131 -31 102 -2 q 73 28 73 69 q 73 110 102 139 q 131 167 173 168 z"},"p":{"x_min":0,"x_max":770,"ha":770,"o":"m 71 687 l 513 687 q 783 687 783 437 q 783 193 509 193 l 319 193 l 319 33 l 362 -20 l 71 -20 l 112 33 l 112 629 z m 319 541 l 319 327 l 462 327 q 571 327 571 434 q 571 541 459 541 z"},"X":{"x_min":0,"x_max":833,"ha":833,"o":"m 336 339 l 63 687 l 360 687 l 329 645 l 473 438 l 622 646 l 588 687 l 865 687 l 865 686 l 591 334 l 863 -15 l 572 -15 l 603 27 l 459 234 l 305 26 l 339 -15 l 62 -15 l 62 -13 z"},"*":{"x_min":0,"x_max":504,"ha":504,"o":"m 184 753 l 371 753 l 371 699 q 342 692 336 675 q 331 658 330 614 q 366 626 383 637 q 400 648 400 658 q 400 660 398 679 l 449 696 l 507 519 l 456 501 q 440 527 429 527 q 403 527 362 514 q 382 488 397 474 q 412 459 420 459 q 423 459 445 469 l 477 426 l 326 315 l 295 358 q 312 379 312 383 q 312 403 277 452 q 243 403 243 383 q 243 379 260 358 l 229 315 l 77 425 l 109 469 q 131 459 135 459 q 152 459 192 514 q 149 527 125 527 q 114 527 98 502 l 47 518 l 105 695 l 156 680 q 154 660 154 657 q 154 649 174 636 q 193 624 224 614 q 223 659 218 676 q 212 692 184 699 z"},"Y":{"x_min":0,"x_max":809,"ha":809,"o":"m 565 216 l 565 31 l 607 -20 l 311 -20 l 354 34 l 354 216 l 44 687 l 346 687 l 303 648 l 482 358 l 667 649 l 622 687 l 874 687 l 874 685 z"},"c":{"x_min":0,"x_max":778,"ha":778,"o":"m 792 30 q 672 -32 518 -32 q 94 -32 94 338 q 94 694 513 694 q 619 694 742 653 l 792 698 l 792 466 q 656 543 514 543 q 313 543 313 329 q 313 119 513 119 q 703 119 792 167 z"},"!":{"x_min":0,"x_max":378,"ha":378,"o":"m 292 215 l 125 215 l 154 251 l 119 645 l 86 686 l 331 686 l 298 645 l 263 251 z m 208 168 q 250 168 279 139 q 308 109 308 68 q 308 27 279 -2 q 249 -31 208 -31 q 167 -31 138 -2 q 109 28 109 69 q 109 110 138 139 q 167 167 208 168 z"},"/":{"x_min":0,"x_max":759,"ha":759,"o":"m 271 17 l 301 -20 l 33 -20 l 527 646 l 498 686 l 765 686 z"},"[":{"x_min":0,"x_max":333,"ha":333,"o":"m 65 740 l 364 740 l 364 601 l 319 633 l 243 633 l 243 34 l 313 34 l 364 66 l 364 -73 l 65 -73 l 97 -32 l 97 698 z"},"6":{"x_min":0,"x_max":713,"ha":713,"o":"m 646 459 q 543 549 422 551 q 348 551 295 512 q 262 487 245 452 q 229 417 228 405 q 244 419 298 439 q 352 460 421 460 q 534 460 615 406 q 661 375 688 325 q 714 276 714 218 q 714 104 619 34 q 529 -31 392 -31 q 243 -31 157 45 q 101 95 73 173 q 47 247 47 327 q 47 491 149 592 q 254 698 421 698 q 576 698 687 607 z m 395 310 q 328 310 286 277 q 254 252 254 214 q 254 175 286 150 q 327 118 396 118 q 465 118 506 150 q 538 175 538 212 q 538 252 506 277 q 465 309 395 310 z"},"r":{"x_min":0,"x_max":770,"ha":770,"o":"m 71 687 l 513 687 q 783 687 783 473 q 783 298 623 259 l 814 -20 l 501 -20 l 544 33 l 411 232 l 319 232 l 319 33 l 362 -20 l 71 -20 l 112 28 l 112 639 z m 319 541 l 319 366 l 462 366 q 571 366 571 456 q 571 541 459 541 z"},"2":{"x_min":0,"x_max":713,"ha":713,"o":"m 46 -21 l 46 -16 q 46 67 61 109 q 91 197 175 258 q 217 289 311 331 l 393 369 q 448 394 469 418 q 491 442 491 474 q 491 509 467 527 q 443 545 392 545 q 326 545 255 513 q 176 481 115 404 l 40 561 q 191 698 410 698 q 530 698 603 638 q 679 575 679 472 q 679 370 607 304 q 561 262 485 228 l 410 195 q 398 188 356 172 q 307 152 288 140 l 671 140 l 718 181 l 718 -21 z"},"{":{"x_min":0,"x_max":333,"ha":333,"o":"m 366 -73 l 178 -73 q 141 -73 109 -48 q 70 -19 70 21 l 70 204 q 69 255 66 262 q 64 269 59 269 l 4 269 l -28 237 l -28 429 l 4 398 l 59 398 q 64 398 67 405 q 69 411 70 462 l 70 645 q 70 683 104 711 q 137 740 178 740 l 366 740 l 366 596 l 315 627 l 252 627 q 218 625 218 578 l 218 403 q 218 376 207 357 q 196 339 189 333 q 196 328 207 310 q 218 291 218 263 l 218 89 q 218 42 252 40 l 315 40 l 366 71 z"},"9":{"x_min":0,"x_max":713,"ha":713,"o":"m 126 205 q 203 123 336 116 q 411 116 463 154 q 497 180 514 215 q 530 250 531 262 q 515 248 461 227 q 407 207 337 207 q 225 207 145 260 q 97 292 71 342 q 45 391 45 448 q 45 563 141 632 q 230 698 367 698 q 516 698 602 622 q 658 571 686 493 q 712 420 712 340 q 712 176 610 74 q 505 -31 338 -31 q 173 -29 59 61 z m 363 549 q 295 549 253 516 q 222 492 222 453 q 222 414 253 389 q 294 357 363 357 q 432 357 473 389 q 504 414 504 452 q 504 492 473 517 q 433 548 363 549 z"}," ":{"x_min":0,"x_max":250,"ha":250,"o":""},"I":{"x_min":0,"x_max":368,"ha":368,"o":"m 81 687 l 377 687 l 336 636 l 336 31 l 377 -20 l 81 -20 l 125 34 l 125 634 z"},"H":{"x_min":0,"x_max":862,"ha":862,"o":"m 302 258 l 302 31 l 343 -20 l 47 -20 l 91 34 l 91 634 l 47 687 l 343 687 l 302 636 l 302 421 l 638 421 l 638 634 l 594 687 l 890 687 l 849 636 l 849 31 l 890 -20 l 594 -20 l 638 34 l 638 258 z"},"4":{"x_min":0,"x_max":714,"ha":714,"o":"m 461 93 l 46 93 l 46 236 l 447 687 l 672 687 l 641 640 l 641 242 l 707 242 l 707 93 l 641 93 l 641 17 l 672 -20 l 430 -20 l 461 17 z m 461 242 l 461 463 l 266 242 z"},"~":{"x_min":0,"x_max":667,"ha":667,"o":"m 191 206 l 93 288 q 119 351 143 383 q 192 447 263 447 q 302 447 380 413 q 439 387 457 387 q 483 387 524 460 l 623 378 q 593 309 569 280 q 521 219 452 219 q 430 219 409 226 q 388 233 308 267 q 276 280 258 280 q 245 280 233 270 q 221 259 191 206 z"},"D":{"x_min":0,"x_max":807,"ha":807,"o":"m 80 -19 l 124 34 l 124 634 l 80 687 l 458 687 q 850 687 850 331 q 850 -19 462 -19 z m 334 127 l 435 127 q 631 127 631 332 q 631 540 430 540 l 334 540 z"},"^":{"x_min":0,"x_max":500,"ha":500,"o":"m 187 333 l 17 333 l 190 690 l 373 690 l 546 333 l 376 333 l 281 529 z"},"0":{"x_min":0,"x_max":713,"ha":713,"o":"m 375 698 q 515 698 607 607 q 711 505 711 329 q 711 273 696 217 q 680 160 653 117 q 606 42 528 3 q 459 -31 376 -31 q 236 -31 145 61 q 100 104 76 160 q 41 241 41 333 q 41 458 99 550 q 145 624 224 664 q 289 697 375 698 z m 375 545 q 308 545 268 485 q 229 426 229 337 q 229 249 268 189 q 308 129 376 129 q 444 129 484 189 q 523 249 523 334 q 523 428 484 485 q 444 544 375 545 z"},"F":{"x_min":0,"x_max":709,"ha":709,"o":"m 83 687 l 749 687 l 749 498 l 693 542 l 333 542 l 333 403 l 562 403 l 615 447 l 615 221 l 562 265 l 333 265 l 333 35 l 382 -19 l 83 -19 l 127 34 l 127 634 z"},"`":{"x_min":0,"x_max":500,"ha":500,"o":"m 243 589 l 120 768 l 276 768 l 354 589 z"},"k":{"x_min":0,"x_max":846,"ha":846,"o":"m 353 247 l 287 189 l 287 31 l 329 -20 l 32 -20 l 76 34 l 76 634 l 32 687 l 329 687 l 287 636 l 287 402 l 545 634 l 501 687 l 856 687 l 492 369 l 849 -20 l 496 -20 l 540 33 z"},"u":{"x_min":0,"x_max":816,"ha":816,"o":"m 84 687 l 377 687 l 333 634 l 333 250 q 333 122 478 122 q 624 122 624 247 l 624 634 l 583 687 l 875 687 l 831 634 l 831 247 q 831 -31 479 -31 q 125 -31 125 251 l 125 636 z"},"]":{"x_min":0,"x_max":333,"ha":333,"o":"m 275 698 l 275 -32 l 307 -73 l 8 -73 l 8 66 l 59 34 l 129 34 l 129 633 l 53 633 l 8 601 l 8 740 l 307 740 z"},"U":{"x_min":0,"x_max":816,"ha":816,"o":"m 84 687 l 377 687 l 333 634 l 333 250 q 333 122 478 122 q 624 122 624 247 l 624 634 l 583 687 l 875 687 l 831 634 l 831 247 q 831 -31 479 -31 q 125 -31 125 251 l 125 636 z"},"o":{"x_min":0,"x_max":840,"ha":840,"o":"m 456 698 q 855 698 855 331 q 855 -31 463 -31 q 54 -31 54 339 q 54 698 456 698 z m 271 340 q 271 118 461 118 q 638 118 638 331 q 638 549 453 549 q 271 549 271 340 z"},"N":{"x_min":0,"x_max":874,"ha":874,"o":"m 84 687 l 305 687 l 667 279 l 667 636 l 626 687 l 874 687 l 830 634 l 830 -20 l 672 -20 l 289 396 l 289 34 l 332 -20 l 84 -20 l 126 33 l 126 630 z"},"+":{"x_min":0,"x_max":767,"ha":767,"o":"m 335 266 l 156 266 l 114 235 l 114 432 l 156 401 l 335 401 l 335 580 l 304 622 l 501 622 l 470 580 l 470 401 l 649 401 l 691 432 l 691 235 l 649 266 l 470 266 l 470 87 l 501 45 l 304 45 l 335 87 z"},"G":{"x_min":0,"x_max":839,"ha":839,"o":"m 792 698 l 792 465 q 646 543 514 543 q 313 543 313 329 q 313 119 509 119 q 576 119 619 133 l 619 274 l 577 329 l 824 329 l 824 41 q 707 -32 472 -32 q 94 -32 94 338 q 94 694 522 694 q 638 694 742 653 z"},"q":{"x_min":0,"x_max":840,"ha":840,"o":"m 620 217 q 638 263 638 331 q 638 549 453 549 q 271 549 271 340 q 271 123 453 118 l 416 179 l 579 280 z m 542 -27 q 505 -31 463 -31 q 54 -31 54 339 q 54 698 456 698 q 855 698 855 331 q 855 130 735 41 l 768 -9 l 587 -101 z"},"d":{"x_min":0,"x_max":807,"ha":807,"o":"m 80 -19 l 124 34 l 124 634 l 80 687 l 458 687 q 850 687 850 331 q 850 -19 462 -19 z m 334 127 l 435 127 q 631 127 631 332 q 631 540 430 540 l 334 540 z"},"1":{"x_min":0,"x_max":352,"ha":352,"o":"m 20 406 l 20 540 l 226 693 l 297 694 l 297 27 l 328 -20 l 85 -20 l 117 27 l 117 478 z"},"5":{"x_min":0,"x_max":713,"ha":713,"o":"m 681 685 l 681 502 l 635 533 l 250 533 l 250 441 q 306 469 417 469 q 563 469 648 399 q 729 333 729 226 q 729 144 681 79 q 599 -31 406 -31 q 239 -31 120 52 l 74 15 l 74 230 q 236 126 402 122 q 470 122 507 148 q 545 176 545 225 q 545 270 507 297 q 470 324 402 324 q 268 324 94 267 l 94 638 l 62 685 z"}}}
